<svg xmlns="http://www.w3.org/2000/svg" viewBox="0 0 100 100">
  <rect width="100" height="100" rx="22" fill="#2563EB"/>
  <g transform="translate(50,50) scale(0.62) translate(-50,-70)" stroke="white" stroke-linecap="round" stroke-linejoin="round" fill="none">
    <rect x="22" y="3" width="56" height="18" rx="4" stroke-width="6"/>
    <path d="M 28 21 C 22 28 4 48 3 64 C 2 75 12 86 22 96 C 28 103 33 113 33 121 C 33 127 39 133 46 133 C 49 133 50 127 49 119 C 48 109 48 102 48 96" stroke-width="6"/>
    <path d="M 72 21 C 78 28 96 48 97 64 C 98 75 88 86 78 96 C 72 103 67 113 67 121 C 67 127 61 133 54 133 C 51 133 50 127 51 119 C 52 109 52 102 52 96" stroke-width="6"/>
    <line x1="50" y1="21" x2="50" y2="74" stroke-width="5"/>
    <circle cx="50" cy="82" r="8" stroke-width="5"/>
  </g>
</svg>
